<?xml version="1.0" encoding="UTF-8" standalone="no"?>
<!-- Generator: Adobe Illustrator 19.0.0, SVG Export Plug-In . SVG Version: 6.00 Build 0)  -->

<svg
   version="1.1"
   id="Layer_1"
   x="0px"
   y="0px"
   viewBox="0 0 75.000003 75.000003"
   xml:space="preserve"
   sodipodi:docname="replay.svg"
   inkscape:version="1.1.2 (b8e25be8, 2022-02-05)"
   width="75"
   height="75"
   xmlns:inkscape="http://www.inkscape.org/namespaces/inkscape"
   xmlns:sodipodi="http://sodipodi.sourceforge.net/DTD/sodipodi-0.dtd"
   xmlns="http://www.w3.org/2000/svg"
   xmlns:svg="http://www.w3.org/2000/svg"><defs
   id="defs2224" /><sodipodi:namedview
   id="namedview2222"
   pagecolor="#ffffff"
   bordercolor="#666666"
   borderopacity="1.0"
   inkscape:pageshadow="2"
   inkscape:pageopacity="0.0"
   inkscape:pagecheckerboard="0"
   showgrid="false"
   inkscape:zoom="0.93739154"
   inkscape:cx="122.14747"
   inkscape:cy="222.42573"
   inkscape:window-width="1296"
   inkscape:window-height="951"
   inkscape:window-x="0"
   inkscape:window-y="25"
   inkscape:window-maximized="0"
   inkscape:current-layer="g2187" />
<g
   transform="translate(0,-562.36)"
   id="g2189">
	<g
   id="g2187">
		<g
   id="g2185"
   transform="matrix(0.23461659,0,0,0.24514425,0,423.90915)">
			<polygon
   points=""
   id="polygon2179" />
			<path
   d="m 115.5,671.112 v 97.7 c 0,10.5 10.5,17.3 19.9,12.6 l 98.2,-48.8 c 10,-5.3 10,-20 0,-25.2 l -98.2,-48.8 c -2.1,-1.1 -4.2,-1.7 -6.8,-1.7 -7.3,0.5 -13.1,6.3 -13.1,14.2 z m 27.8,22.6 52.5,26.3 -52.5,26.3 z"
   id="path2181" />
			<path
   d="m 237.8,590.812 c -23.6,-12.6 -49.3,-18.4 -74.5,-17.9 v 0 c -3.7,0 -7.4,0.6 -11.1,1.1 -28.3,2.6 -55.6,14.2 -78.7,33.1 -7.3,-6.3 -17.3,-10 -27.8,-10 -25.2,0 -45.7,20.5 -45.7,45.7 0,24.7 20.5,45.2 45.7,45.2 24.6,0 45.1,-20.5 45.1,-45.2 0,-4.2 -0.6,-8.4 -1.6,-12.6 0.6,0 1.1,-0.6 1.6,-1.1 37.3,-31.6 90.3,-37.3 133.9,-13.7 43,23.1 67.7,70.4 61.4,119.2 -6.3,48.8 -41.5,88.7 -88.7,100.8 -47.8,12.1 -98.2,-6.3 -126.5,-46.2 -11.1,-15.2 -33.6,1.1 -22.6,15.8 35.2,49.3 97.1,72.4 155.9,57.2 58.3,-14.7 102.4,-64 109.7,-124.4 7.4,-59.8 -23.1,-118.6 -76.1,-147 z m -192.1,69.3 c -9.9,0 -17.8,-7.8 -17.8,-17.3 0,-10 7.8,-17.9 17.8,-17.9 9.4,0 17.3,7.9 17.3,17.9 0,9.4 -7.9,17.3 -17.3,17.3 z"
   id="path2183" />
		</g>
	</g>
</g>
<g
   id="g2191">
</g>
<g
   id="g2193">
</g>
<g
   id="g2195">
</g>
<g
   id="g2197">
</g>
<g
   id="g2199">
</g>
<g
   id="g2201">
</g>
<g
   id="g2203">
</g>
<g
   id="g2205">
</g>
<g
   id="g2207">
</g>
<g
   id="g2209">
</g>
<g
   id="g2211">
</g>
<g
   id="g2213">
</g>
<g
   id="g2215">
</g>
<g
   id="g2217">
</g>
<g
   id="g2219">
</g>
</svg>
